<?xml version="1.0" encoding="utf-8"?>
<!-- Generator: Adobe Illustrator 16.0.0, SVG Export Plug-In . SVG Version: 6.00 Build 0)  -->
<!DOCTYPE svg PUBLIC "-//W3C//DTD SVG 1.1//EN" "http://www.w3.org/Graphics/SVG/1.1/DTD/svg11.dtd">
<svg version="1.1" id="Layer_1" xmlns="http://www.w3.org/2000/svg" xmlns:xlink="http://www.w3.org/1999/xlink" x="0px" y="0px"
	 width="150px" height="47px" viewBox="0 0 150 47" enable-background="new 0 0 150 47" xml:space="preserve">
<g>
	<polygon fill="#CA4142" points="79.363,23.483 79.363,23.393 79.334,23.452 	"/>
	<path fill="#CA4142" d="M42.094,16.503c-1.462-0.98-3.398-1.617-5.909-1.617H22.599v4.858c-1.473-4.029-5.734-5.477-10.437-5.477
		c-5.432,0-10.625,2.565-10.625,8.537c0,5.188,4.75,6.328,8.921,7.469c4.545,1.285,5.684,1.635,5.684,2.985
		c0,1.898-2.026,2.335-3.359,2.335c-1.508,0-3.285-0.328-3.877-1.885c-0.176-0.45-0.292-1.03-0.292-1.696H0.5
		c0.074,8.239,8.598,9.293,11.588,9.293c4.018,0,8.25-1.023,10.511-3.831v3.205h8.122v-7.798h4.794c2.598,0,4.867-0.534,6.612-1.638
		l3.633-7.375L42.094,16.503z M22.599,27.909c-1.416-1.515-3.582-2.35-5.762-2.942c-3.714-1.003-7.487-1.41-7.636-3.252
		c0-1.448,1.811-1.739,2.917-1.739c0.813,0,1.733,0.189,2.396,0.654c0.666,0.434,1.109,1.085,0.961,2.058h7.124V27.909z
		 M33.856,26.739h-3.136v-5.241h3.61c2,0,3.835,0.145,3.835,2.494C38.166,26.595,35.959,26.739,33.856,26.739z"/>
	<path fill="#CA4142" d="M142.086,24.934c-3.721-1.017-7.504-1.407-7.646-3.25c0-1.448,1.815-1.737,2.91-1.737
		c0.829,0,1.746,0.172,2.415,0.652c0.648,0.435,1.092,1.085,0.945,2.06h7.696c-0.24-6.296-5.282-8.428-11.013-8.428
		c-5.139,0-10.086,2.314-10.568,7.627c-1.407-4.856-5.212-7.589-11.426-7.627c-5.696,0-9.994,2.674-12.031,7.096
		c-0.461-4.286-4.23-6.487-8.539-6.487h-11.11l-4.355,8.554v0.09l3.828,6.32l-3.828-1.241v12.104h8.109v-9.003h4.334
		c3.201,0,3.421,2.564,3.637,5.026c0.124,1.322,0.271,2.672,0.674,3.977h8.106c-0.74-1.206-0.774-4.262-0.888-5.544
		c-0.036-0.602-0.151-1.184-0.281-1.728c1.845,4.709,6.088,7.866,12.345,7.866c5.389,0,9.133-2.701,10.892-6.1
		c1.906,5.352,8.48,6.1,11.046,6.1c5.845,0,12.163-2.15,12.163-8.875C149.5,27.646,145.8,25.948,142.086,24.934z M91.718,26.132
		h-4.245v-5.143h3.802c3.11,0,4.024,0.941,4.024,2.566C95.299,25.869,93.244,26.132,91.718,26.132z M99.476,28.705
		c1.107-0.428,1.972-1.141,2.62-2.039c-0.025,0.345-0.047,0.723-0.047,1.078c0,1.473,0.19,2.861,0.527,4.176
		C101.912,30.35,100.852,29.217,99.476,28.705z M138.032,35.551c-1.525,0-3.302-0.309-3.884-1.858
		c-0.173-0.476-0.291-1.059-0.291-1.706h-6.545c0.091-0.48,0.133-0.979,0.133-1.442h-7.992c-0.457,2.423-1.54,4.294-4.259,4.294
		c-3.803,0-5.034-3.609-5.034-7.094c0-3.465,1.231-7.074,5.034-7.074c3.356,0,4.099,2.856,4.245,3.791h7.537
		c0.918,3.781,5.054,4.772,8.732,5.792c4.542,1.266,5.683,1.612,5.683,2.964C141.392,35.123,139.363,35.551,138.032,35.551z"/>
	<polygon fill="#CA4142" points="81.567,28.542 77.364,23.639 84.372,12.412 70.27,12.412 62.55,0.178 62.514,0.157 54.869,12.412 
		40.504,12.412 47.73,23.85 40.729,35.092 58.273,35.092 62.56,27.596 66.442,35.092 62.578,35.092 68.089,46.844 68.076,40.663 
		77.995,40.66 62.573,15.7 54.309,29.085 52.183,29.085 55.47,23.804 52.073,18.411 58.835,18.411 62.55,12.503 66.283,18.411 
		72.901,18.411 69.612,23.689 	"/>
</g>
</svg>
