<?xml version="1.0" encoding="utf-8"?>
<!-- Generator: Adobe Illustrator 16.0.0, SVG Export Plug-In . SVG Version: 6.00 Build 0)  -->
<!DOCTYPE svg PUBLIC "-//W3C//DTD SVG 1.1//EN" "http://www.w3.org/Graphics/SVG/1.1/DTD/svg11.dtd">
<svg version="1.1" id="Layer_1" xmlns="http://www.w3.org/2000/svg" xmlns:xlink="http://www.w3.org/1999/xlink" x="0px" y="0px"
	 width="150px" height="47px" viewBox="0 0 150 47" enable-background="new 0 0 150 47" xml:space="preserve">
<g>
	<path fill="none" d="M34.553,21.476h-3.666v5.277h3.179c2.132,0,4.376-0.146,4.376-2.766
		C38.443,21.621,36.573,21.476,34.553,21.476z"/>
	<path fill="none" d="M90.722,20.964h-3.853v5.168h4.303c1.532,0,3.627-0.255,3.627-2.583
		C94.799,21.911,93.863,20.964,90.722,20.964z"/>
	<path fill="none" d="M14.463,20.602c-0.673-0.473-1.608-0.655-2.432-0.655c-1.122,0-2.955,0.292-2.955,1.747
		c0.15,1.856,3.965,2.257,7.743,3.276c2.205,0.595,4.396,1.426,5.839,2.963v-5.255h-7.224
		C15.585,21.694,15.137,21.039,14.463,20.602z"/>
	<path fill="none" d="M135.762,30.28c-3.721-1.024-7.905-2.023-8.853-5.822h-7.647c-0.148-0.946-0.897-3.821-4.301-3.821
		c-3.853,0-5.086,3.638-5.086,7.133c0,3.493,1.233,7.133,5.086,7.133c2.769,0,3.853-1.894,4.339-4.331h8.079
		c0,0.484-0.036,0.971-0.111,1.455h6.623c0,0.655,0.112,1.238,0.3,1.711c0.598,1.565,2.394,1.892,3.928,1.892
		c1.346,0,3.403-0.437,3.403-2.364C141.521,31.919,140.362,31.556,135.762,30.28z"/>
	<path fill="none" d="M101.683,26.673c-0.645,0.904-1.523,1.635-2.656,2.043c1.409,0.526,2.478,1.669,3.153,3.249
		c-0.353-1.314-0.535-2.723-0.535-4.194C101.645,27.397,101.661,27.033,101.683,26.673z"/>
	<path fill="#C9252C" d="M42.425,16.449c-1.481-0.992-3.448-1.633-6.002-1.633H22.659v4.89c-1.501-4.05-5.816-5.508-10.589-5.508
		c-5.499,0-10.772,2.583-10.772,8.588c0,5.24,4.825,6.368,9.051,7.533c4.601,1.273,5.76,1.638,5.76,2.984
		c0,1.929-2.057,2.365-3.404,2.365c-1.534,0-3.329-0.327-3.927-1.893c-0.188-0.473-0.299-1.056-0.299-1.71H0.25
		c0.074,8.297,8.715,9.353,11.745,9.353c4.081,0,8.373-1.028,10.665-3.86V40.8h8.229v-7.86h4.862c2.632,0,4.932-0.544,6.702-1.662
		l3.684-7.418L42.425,16.449z M22.659,27.933c-1.444-1.537-3.635-2.368-5.839-2.963c-3.778-1.019-7.593-1.419-7.743-3.276
		c0-1.456,1.833-1.747,2.955-1.747c0.823,0,1.759,0.183,2.432,0.655c0.673,0.437,1.122,1.092,0.972,2.075h7.224V27.933z
		 M34.066,26.753h-3.179v-5.277h3.666c2.02,0,3.89,0.145,3.89,2.511C38.443,26.607,36.199,26.753,34.066,26.753z"/>
	<path fill="#C9252C" d="M142.232,24.932c-3.777-1.02-7.593-1.419-7.743-3.275c0-1.457,1.833-1.747,2.955-1.747
		c0.822,0,1.758,0.182,2.432,0.655c0.673,0.437,1.122,1.092,0.972,2.074h7.78c-0.224-6.332-5.349-8.479-11.146-8.479
		c-5.211,0-10.218,2.323-10.726,7.678c-1.425-4.887-5.288-7.647-11.572-7.678c-5.794,0-10.139,2.692-12.203,7.143
		c-0.464-4.319-4.287-6.524-8.668-6.524H84.104l-3.921,8.66l3.896,6.392l-5.438-1.765v12.697h8.228V31.7h4.376
		c3.255,0,3.479,2.584,3.704,5.059c0.111,1.347,0.262,2.692,0.673,4.003h8.229c-0.747-1.2-0.785-4.294-0.897-5.568
		c-0.058-0.615-0.153-1.201-0.288-1.753c1.853,4.74,6.177,7.941,12.519,7.941c5.465,0,9.244-2.722,11.027-6.146
		c1.951,5.374,8.612,6.146,11.195,6.146c5.948,0,12.344-2.185,12.344-8.953C149.75,27.66,146.01,25.95,142.232,24.932z
		 M91.172,26.132h-4.303v-5.168h3.853c3.142,0,4.077,0.947,4.077,2.584C94.799,25.877,92.704,26.132,91.172,26.132z M99.026,28.716
		c1.133-0.408,2.012-1.139,2.656-2.043c-0.021,0.36-0.038,0.725-0.038,1.098c0,1.472,0.183,2.88,0.535,4.194
		C101.504,30.385,100.436,29.242,99.026,28.716z M138.118,35.63c-1.534,0-3.33-0.326-3.928-1.892c-0.188-0.473-0.3-1.056-0.3-1.711
		h-6.623c0.075-0.484,0.111-0.971,0.111-1.455H119.3c-0.486,2.438-1.57,4.331-4.339,4.331c-3.853,0-5.086-3.64-5.086-7.133
		c0-3.495,1.233-7.133,5.086-7.133c3.403,0,4.152,2.875,4.301,3.821h7.647c0.947,3.799,5.132,4.798,8.853,5.822
		c4.601,1.275,5.76,1.639,5.76,2.985C141.521,35.193,139.464,35.63,138.118,35.63z"/>
	<polygon fill="#C9252C" points="82.421,28.561 78.157,23.635 85.259,12.331 70.969,12.331 63.139,0.017 63.102,0 55.357,12.331 
		40.795,12.331 48.121,23.85 41.019,35.155 58.807,35.155 63.162,27.621 67.084,35.155 63.178,35.155 68.753,47 68.737,40.762 
		78.814,40.761 63.173,15.647 54.794,29.111 52.627,29.111 55.972,23.796 52.521,18.376 59.382,18.376 63.139,12.427 66.925,18.376 
		73.65,18.376 70.306,23.689 	"/>
</g>
</svg>
