<?xml version="1.0" encoding="utf-8"?>
<!-- Generator: Adobe Illustrator 16.0.0, SVG Export Plug-In . SVG Version: 6.00 Build 0)  -->
<!DOCTYPE svg PUBLIC "-//W3C//DTD SVG 1.1//EN" "http://www.w3.org/Graphics/SVG/1.1/DTD/svg11.dtd">
<svg version="1.1" id="Layer_1" xmlns="http://www.w3.org/2000/svg" xmlns:xlink="http://www.w3.org/1999/xlink" x="0px" y="0px"
	 width="50px" height="50px" viewBox="0 0 50 50" enable-background="new 0 0 50 50" xml:space="preserve">
<path fill="#FFFFFF" d="M24.996,0.5C11.469,0.5,0.5,11.47,0.5,25c0,13.525,10.969,24.5,24.496,24.5S49.499,38.525,49.499,25
	C49.499,11.47,38.522,0.5,24.996,0.5z M41.358,29.385l-10.217-4.222l2.816-4.605h-5.676l-3.19-5.163l-3.169,5.163h-5.792
	l2.912,4.697l-2.82,4.607h1.827l7.069-11.67l13.197,21.779h-8.5l0.018,5.414l-4.708-10.268h3.296l-3.308-6.547l-3.679,6.547H6.424
	l5.994-9.818l-6.183-9.986h12.291L25.06,4.616l0.033,0.011l6.602,10.686h12.061l-5.986,9.802L41.358,29.385z"/>
</svg>
